<?xml version="1.0" standalone="no"?><!DOCTYPE svg PUBLIC "-//W3C//DTD SVG 1.1//EN" "http://www.w3.org/Graphics/SVG/1.1/DTD/svg11.dtd"><svg t="1731408221071" class="icon" viewBox="0 0 1024 1024" version="1.1" xmlns="http://www.w3.org/2000/svg" p-id="12107" xmlns:xlink="http://www.w3.org/1999/xlink" width="256" height="256"><path d="M400.885333 95.690667A21.333333 21.333333 0 0 0 382.592 85.333333H176.341333c-16.576 0-26.816 18.090667-18.293333 32.309334l230.4 384a21.333333 21.333333 0 0 0 18.293333 10.357333h206.250667c16.576 0 26.816-18.090667 18.293333-32.309333l-230.4-384z" fill="#348304" p-id="12108"></path><path d="M382.592 64H176.352c-33.173333 0-53.653333 36.181333-36.586667 64.618667l230.4 384A42.666667 42.666667 0 0 0 406.752 533.333333h206.24c33.173333 0 53.653333-36.181333 36.586667-64.618666l-230.4-384A42.666667 42.666667 0 0 0 382.592 64z m0 21.333333a21.333333 21.333333 0 0 1 18.293333 10.357334l230.4 384c8.533333 14.218667-1.706667 32.309333-18.293333 32.309333H406.752a21.333333 21.333333 0 0 1-18.293333-10.357333l-230.4-384c-8.533333-14.218667 1.706667-32.309333 18.293333-32.309334h206.24z" fill="#245E01" p-id="12109"></path><path d="M623.114667 95.690667A21.333333 21.333333 0 0 1 641.408 85.333333h206.250667c16.576 0 26.816 18.090667 18.293333 32.309334l-230.4 384a21.333333 21.333333 0 0 1-18.293333 10.357333H411.008c-16.576 0-26.816-18.090667-18.293333-32.309333l230.4-384z" fill="#47B405" p-id="12110"></path><path d="M641.418667 64h206.24c33.162667 0 53.653333 36.181333 36.586666 64.618667l-230.4 384A42.666667 42.666667 0 0 1 617.258667 533.333333H411.008c-33.162667 0-53.653333-36.181333-36.586667-64.618666l230.4-384A42.666667 42.666667 0 0 1 641.418667 64z m0 21.333333a21.333333 21.333333 0 0 0-18.293334 10.357334l-230.4 384c-8.533333 14.218667 1.706667 32.309333 18.293334 32.309333h206.24a21.333333 21.333333 0 0 0 18.293333-10.357333l230.4-384c8.533333-14.218667-1.706667-32.309333-18.293333-32.309334H641.408z" fill="#245E01" p-id="12111"></path><path d="M645.354667 97.44a10.666667 10.666667 0 0 1 3.872 14.581333l-96 165.333334a10.666667 10.666667 0 0 1-18.453334-10.709334l96-165.333333a10.666667 10.666667 0 0 1 14.581334-3.872z" fill="#64D91D" p-id="12112"></path><path d="M175.978667 97.44a10.666667 10.666667 0 0 0-3.872 14.581333l96 165.333334a10.666667 10.666667 0 0 0 18.453333-10.709334l-96-165.333333a10.666667 10.666667 0 0 0-14.581333-3.872z" fill="#49A411" p-id="12113"></path><path d="M378.666667 120.330667c0 7.552-5.973333 13.664-13.333334 13.664S352 127.893333 352 120.352c0-7.552 5.973333-13.674667 13.333333-13.674667s13.333333 6.122667 13.333334 13.664zM331.84 123.669333c0 9.386667-7.424 17.002667-16.586667 17.002667S298.666667 133.045333 298.666667 123.669333c0-9.386667 7.424-17.002667 16.586666-17.002666s16.586667 7.605333 16.586667 17.002666zM373.333333 172.330667c0 9.386667-7.424 17.002667-16.576 17.002666-9.173333 0-16.586667-7.605333-16.586666-17.002666 0-9.386667 7.424-16.992 16.586666-16.992 9.152 0 16.576 7.605333 16.576 16.992zM411.253333 149.162667c0 4.693333-3.712 8.501333-8.298666 8.501333a8.394667 8.394667 0 0 1-8.288-8.501333c0-4.693333 3.712-8.490667 8.288-8.490667 4.586667 0 8.298667 3.797333 8.298666 8.490667zM323.552 163.84c0 4.693333-3.712 8.490667-8.298667 8.490667a8.394667 8.394667 0 0 1-8.288-8.501334c0-4.693333 3.712-8.490667 8.288-8.490666 4.586667 0 8.298667 3.797333 8.298667 8.490666zM277.333333 111.829333c0 4.693333-3.712 8.501333-8.288 8.501334a8.394667 8.394667 0 0 1-8.298666-8.501334c0-4.693333 3.712-8.490667 8.298666-8.490666 4.586667 0 8.288 3.797333 8.288 8.490666zM402.965333 208.501333c0 4.693333-3.722667 8.501333-8.298666 8.501334a8.394667 8.394667 0 0 1-8.288-8.501334c0-4.693333 3.712-8.501333 8.288-8.501333 4.586667 0 8.298667 3.808 8.298666 8.501333zM360.298667 217.002667c0 4.693333-3.722667 8.501333-8.298667 8.501333a8.394667 8.394667 0 0 1-8.288-8.501333c0-4.693333 3.712-8.501333 8.288-8.501334 4.586667 0 8.298667 3.808 8.298667 8.501334zM442.986667 186.165333c0 7.637333-6.037333 13.834667-13.493334 13.834667S416 193.813333 416 186.165333c0-7.637333 6.037333-13.834667 13.493333-13.834666s13.504 6.186667 13.504 13.834666zM460.586667 225.493333c0 4.693333-3.712 8.501333-8.298667 8.501334a8.394667 8.394667 0 0 1-8.288-8.490667c0-4.693333 3.712-8.501333 8.288-8.501333 4.586667 0 8.298667 3.808 8.298667 8.501333z" fill="#2A6A02" p-id="12114"></path><path d="M607.648 419.765333c44.224-6.496 82.645333 1.898667 108 27.253334 25.354667 25.354667 33.749333 63.786667 27.253333 108C778.773333 581.706667 800 614.805333 800 650.666667s-21.226667 68.96-57.098667 95.637333c6.496 44.234667-1.898667 82.656-27.253333 108.010667-25.354667 25.354667-63.786667 33.749333-108.010667 27.253333C580.970667 917.44 547.861333 938.666667 512 938.666667c-35.861333 0-68.96-21.226667-95.637333-57.098667-44.224 6.506667-82.656-1.898667-108.010667-27.253333-25.354667-25.354667-33.749333-63.786667-27.253333-108.010667C245.226667 719.637333 224 686.528 224 650.666667c0-35.861333 21.226667-68.96 57.098667-95.648-6.496-44.213333 1.898667-82.645333 27.253333-108 25.354667-25.354667 63.786667-33.749333 108-27.253334C443.04 383.904 476.138667 362.666667 512 362.666667s68.96 21.226667 95.648 57.098666z" fill="#FFBB0D" p-id="12115"></path><path d="M617.002667 397.184c43.584-3.946667 84.693333 5.706667 113.728 34.752 29.045333 29.045333 38.688 70.144 34.762666 113.728C799.093333 573.717333 821.333333 609.6 821.333333 650.666667c0 41.077333-22.24 76.96-55.84 105.002666 3.936 43.584-5.717333 84.693333-34.762666 113.728-29.045333 29.045333-70.144 38.698667-113.738667 34.762667C588.96 937.76 553.088 960 512 960c-41.066667 0-76.96-22.24-104.992-55.84-43.594667 3.936-84.693333-5.717333-113.738667-34.762667s-38.698667-70.144-34.762666-113.728C224.906667 727.616 202.666667 691.733333 202.666667 650.666667c0-41.077333 22.24-76.96 55.84-105.002667-3.925333-43.584 5.717333-84.682667 34.762666-113.728 29.045333-29.045333 70.144-38.688 113.728-34.752C435.04 363.573333 470.933333 341.333333 512 341.333333c41.077333 0 76.96 22.24 105.002667 55.850667z m-9.354667 22.581333C580.96 383.904 547.861333 362.666667 512 362.666667s-68.96 21.226667-95.648 57.098666c-44.224-6.496-82.645333 1.898667-108 27.253334-25.354667 25.354667-33.749333 63.786667-27.253333 108C245.226667 581.706667 224 614.805333 224 650.666667s21.226667 68.96 57.098667 95.637333c-6.496 44.234667 1.898667 82.656 27.253333 108.010667 25.354667 25.354667 63.786667 33.749333 108.010667 27.253333C443.029333 917.44 476.138667 938.666667 512 938.666667c35.861333 0 68.96-21.226667 95.637333-57.098667 44.234667 6.506667 82.656-1.898667 108.010667-27.253333 25.354667-25.354667 33.749333-63.786667 27.253333-108.010667C778.773333 719.637333 800 686.528 800 650.666667c0-35.861333-21.226667-68.96-57.098667-95.648 6.496-44.213333-1.898667-82.645333-27.253333-108-25.354667-25.354667-63.786667-33.749333-108-27.253334z" fill="#E89B05" p-id="12116"></path><path d="M778.666667 640a10.666667 10.666667 0 0 1 10.666666 10.666667c0 35.914667-20.234667 67.946667-52.16 93.269333 4.672 40.469333-3.669333 77.44-29.066666 102.826667-25.397333 25.408-62.368 33.749333-102.837334 29.077333C579.946667 907.765333 547.914667 928 512 928a10.666667 10.666667 0 1 1 0-21.333333c28.650667 0 56.48-16.949333 80-48.565334a10.666667 10.666667 0 0 1 10.101333-4.192c38.997333 5.728 70.656-1.962667 90.922667-22.218666 20.256-20.266667 27.946667-51.925333 22.218667-90.912a10.666667 10.666667 0 0 1 4.192-10.112C751.04 707.146667 768 679.317333 768 650.666667a10.666667 10.666667 0 0 1 10.666667-10.666667z" fill="#EEAD04" p-id="12117"></path><path d="M512 394.666667c-28.650667 0-56.48 16.96-80 48.565333a10.666667 10.666667 0 0 1-10.112 4.192c-38.986667-5.728-70.645333 1.973333-90.912 22.229333-20.245333 20.256-27.946667 51.914667-22.218667 90.901334a10.666667 10.666667 0 0 1-4.192 10.112C272.96 594.186667 256 622.016 256 650.666667a10.666667 10.666667 0 1 1-21.333333 0c0-35.914667 20.245333-67.946667 52.16-93.269334-4.672-40.469333 3.68-77.44 29.066666-102.826666 25.397333-25.397333 62.368-33.738667 102.826667-29.077334C444.053333 393.578667 476.096 373.333333 512 373.333333a10.666667 10.666667 0 1 1 0 21.333334z" fill="#FFD15C" p-id="12118"></path><path d="M582.848 479.626667c32.757333-4.8 61.226667 1.408 80 20.192 18.784 18.773333 25.002667 47.253333 20.192 80C709.6 599.584 725.333333 624.106667 725.333333 650.666667s-15.733333 51.093333-42.293333 70.848c4.8 32.757333-1.408 61.226667-20.192 80-18.773333 18.784-47.242667 25.002667-80 20.192C563.082667 848.266667 538.56 864 512 864s-51.082667-15.733333-70.848-42.293333c-32.757333 4.810667-61.226667-1.408-80-20.192-18.784-18.773333-25.002667-47.242667-20.192-80C314.4 701.749333 298.666667 677.226667 298.666667 650.666667s15.733333-51.093333 42.293333-70.848c-4.8-32.757333 1.408-61.226667 20.192-80 18.773333-18.773333 47.242667-25.002667 80-20.192C460.917333 453.066667 485.44 437.333333 512 437.333333s51.093333 15.733333 70.848 42.293334z" fill="#FFDD28" p-id="12119"></path><path d="M361.152 801.514667c-18.784-18.773333-25.002667-47.242667-20.192-80C314.4 701.749333 298.666667 677.226667 298.666667 650.666667s15.733333-51.093333 42.293333-70.848c-4.8-32.757333 1.408-61.226667 20.192-80 18.773333-18.773333 47.242667-25.002667 80-20.192C460.917333 453.066667 485.44 437.333333 512 437.333333s51.093333 15.733333 70.848 42.293334c32.757333-4.8 61.226667 1.408 80 20.192 18.784 18.773333 25.002667 47.253333 20.192 80C709.6 599.584 725.333333 624.106667 725.333333 650.666667s-15.733333 51.093333-42.293333 70.848c4.8 32.757333-1.408 61.226667-20.192 80-18.773333 18.784-47.242667 25.002667-80 20.192C563.082667 848.266667 538.56 864 512 864s-51.082667-15.733333-70.848-42.293333c-32.757333 4.810667-61.226667-1.408-80-20.192z m70.698667 42.666666c-32.341333 2.346667-63.413333-5.205333-85.781334-27.573333-22.378667-22.378667-29.92-53.450667-27.584-85.792C293.973333 709.610667 277.333333 682.304 277.333333 650.666667s16.64-58.944 41.152-80.16c-2.336-32.32 5.205333-63.402667 27.584-85.770667 22.368-22.378667 53.44-29.92 85.770667-27.584C453.056 432.64 480.362667 416 512 416c31.648 0 58.944 16.64 80.16 41.152 32.32-2.336 63.402667 5.205333 85.770667 27.584 22.378667 22.368 29.92 53.44 27.584 85.770667C730.026667 591.722667 746.666667 619.04 746.666667 650.666667c0 31.637333-16.64 58.944-41.152 80.149333 2.336 32.341333-5.205333 63.413333-27.584 85.792-22.368 22.368-53.44 29.909333-85.781334 27.573333C570.944 868.693333 543.637333 885.333333 512 885.333333s-58.944-16.64-80.149333-41.152z" fill="#E89B05" p-id="12120"></path><path d="M704 640a10.666667 10.666667 0 0 1 10.666667 10.666667c0 26.56-14.698667 50.026667-37.397334 68.458666 3.018667 29.077333-3.178667 56.064-21.962666 74.848-18.784 18.784-45.76 24.981333-74.848 21.973334C562.026667 838.624 538.56 853.333333 512 853.333333a10.666667 10.666667 0 1 1 0-21.333333c19.349333 0 38.602667-11.445333 55.2-33.76a10.666667 10.666667 0 0 1 10.112-4.192c27.52 4.042667 49.226667-1.472 62.912-15.157333 13.685333-13.685333 19.2-35.392 15.157333-62.912a10.666667 10.666667 0 0 1 4.181334-10.112C681.888 689.28 693.333333 670.026667 693.333333 650.666667a10.666667 10.666667 0 0 1 10.666667-10.666667z" fill="#ECC704" p-id="12121"></path><path d="M512 469.333333c-19.349333 0-38.602667 11.445333-55.2 33.770667a10.666667 10.666667 0 0 1-10.112 4.181333c-27.52-4.042667-49.226667 1.482667-62.912 15.157334-13.674667 13.685333-19.2 35.392-15.157333 62.912a10.666667 10.666667 0 0 1-4.181334 10.112C342.112 612.053333 330.666667 631.306667 330.666667 650.666667a10.666667 10.666667 0 1 1-21.333334 0c0-26.56 14.698667-50.026667 37.397334-68.458667-3.018667-29.077333 3.178667-56.064 21.962666-74.848 18.784-18.784 45.76-24.981333 74.848-21.973333C461.973333 462.709333 485.429333 448 512 448a10.666667 10.666667 0 1 1 0 21.333333z" fill="#FFEF9C" p-id="12122"></path><path d="M455.541333 541.792a10.666667 10.666667 0 0 1 0 15.082667 11.52 11.52 0 0 0-2.933333 5.088c1.066667-0.458667 2.144-0.896 3.253333-1.301334a10.666667 10.666667 0 0 1 7.392 20.010667c-12.544 4.629333-21.653333 14.090667-27.754666 25.386667-6.144 11.392-8.832 24.010667-8.832 33.536 0 19.349333 8.213333 40.021333 20.768 58.101333 12.544 18.101333 28.608 32.394667 42.666666 39.434667a10.666667 10.666667 0 1 1-9.536 19.072 114.325333 114.325333 0 0 1-21.792-14.56 91.584 91.584 0 0 1-11.946666 1.653333c-9.514667 0.746667-23.626667 0.693333-42.997334-2.069333a10.666667 10.666667 0 0 1 3.018667-21.12c14.08 2.016 24.842667 2.421333 32.597333 2.218666a167.68 167.68 0 0 1-9.546666-12.458666l-0.106667-0.181334a109.077333 109.077333 0 0 1-17.109333 0.298667c-11.616-0.725333-27.36-3.658667-40.416-13.450667a10.666667 10.666667 0 1 1 12.8-17.066666c8.277333 6.208 19.2 8.608 28.928 9.216 1.237333 0.085333 2.442667 0.128 3.584 0.149333-1.28-2.634667-2.464-5.301333-3.573334-8.010667l-2.528-0.928a139.68 139.68 0 0 1-15.797333-7.136c-12.053333-6.378667-27.370667-16.853333-36.821333-32.597333a10.666667 10.666667 0 1 1 18.293333-10.986667c6.538667 10.912 17.898667 19.114667 28.512 24.736l0.832 0.437334A96.288 96.288 0 0 1 405.333333 640.085333l-0.992-0.778666c-3.338667-2.602667-7.84-6.4-12.544-11.093334-9.12-9.12-20.298667-22.976-23.584-39.456a10.666667 10.666667 0 0 1 20.906667-4.181333c2.048 10.186667 9.546667 20.330667 17.76 28.544 0.693333 0.704 1.386667 1.376 2.069333 2.026667 1.066667-3.733333 2.378667-7.498667 3.946667-11.221334l-0.202667-0.224a58.816 58.816 0 0 1-8.234666-12.266666c-4.053333-8.128-7.616-20.128-4.138667-34.026667a10.666667 10.666667 0 0 1 20.693333 5.184c-1.856 7.434667-0.074667 14.101333 2.528 19.306667 0.341333 0.682667 0.704 1.344 1.056 1.952a76.906667 76.906667 0 0 1 7.061334-7.872 45.322667 45.322667 0 0 1-0.992-9.312c0-6.976 1.749333-16.832 9.792-24.874667a10.666667 10.666667 0 0 1 15.082666 0zM568.458667 541.792a10.666667 10.666667 0 0 1 15.082666 0c8.042667 8.042667 9.792 17.898667 9.792 24.874667a45.066667 45.066667 0 0 1-0.992 9.312c2.570667 2.485333 4.917333 5.12 7.072 7.872 0.352-0.608 0.704-1.269333 1.045334-1.952 2.602667-5.205333 4.384-11.872 2.528-19.306667a10.666667 10.666667 0 1 1 20.693333-5.184c3.477333 13.898667-0.074667 25.898667-4.138667 34.026667a58.826667 58.826667 0 0 1-8.234666 12.266666l-0.202667 0.224c1.578667 3.722667 2.88 7.477333 3.946667 11.210667 0.693333-0.64 1.386667-1.312 2.08-2.016 8.213333-8.213333 15.712-18.346667 17.749333-28.544a10.666667 10.666667 0 0 1 20.906667 4.181333c-3.285333 16.48-14.453333 30.336-23.573334 39.456A140.757333 140.757333 0 0 1 618.666667 640.085333c-0.021333 4.768-0.426667 9.536-1.173334 14.261334l0.853334-0.437334c10.613333-5.621333 21.973333-13.824 28.512-24.736a10.666667 10.666667 0 0 1 18.293333 10.986667c-9.461333 15.754667-24.768 26.218667-36.821333 32.597333a139.594667 139.594667 0 0 1-18.336 8.064c-1.098667 2.709333-2.293333 5.376-3.573334 8.010667 1.152-0.021333 2.346667-0.064 3.584-0.149333 9.728-0.608 20.650667-3.008 28.928-9.216a10.666667 10.666667 0 0 1 12.8 17.066666c-13.056 9.792-28.8 12.725333-40.394666 13.44a109.088 109.088 0 0 1-17.12-0.288 167.093333 167.093333 0 0 1-9.664 12.64c7.765333 0.213333 18.517333-0.213333 32.608-2.218666a10.666667 10.666667 0 0 1 3.018666 21.12c-19.381333 2.773333-33.493333 2.805333-42.997333 2.08a91.584 91.584 0 0 1-11.946667-1.664c-7.146667 5.973333-14.528 10.933333-21.802666 14.56a10.666667 10.666667 0 1 1-9.536-19.072c14.069333-7.04 30.122667-21.333333 42.666666-39.434667C589.12 679.616 597.333333 658.944 597.333333 639.584c0-9.514667-2.688-22.133333-8.832-33.525333-6.090667-11.296-15.2-20.757333-27.744-25.386667a10.666667 10.666667 0 0 1 7.381334-20.010667c1.109333 0.405333 2.197333 0.842667 3.264 1.301334a11.530667 11.530667 0 0 0-2.944-5.088 10.666667 10.666667 0 0 1 0-15.082667z" fill="#E89B05" p-id="12123"></path></svg>